<?xml version="1.0" encoding="utf-8"?>
<!-- Generator: Adobe Illustrator 23.0.5, SVG Export Plug-In . SVG Version: 6.00 Build 0)  -->
<svg version="1.1" id="Layer_1" xmlns="http://www.w3.org/2000/svg" xmlns:xlink="http://www.w3.org/1999/xlink" x="0px" y="0px"
	 viewBox="0 0 566.3 312.4" style="enable-background:new 0 0 566.3 312.4;" xml:space="preserve">
<style type="text/css">
	.st0{fill:#FFFFFF;}
	.st1{fill:#FBB315;}
</style>
<title>logo</title>
<g>
	<path class="st0" d="M75.9,311.1c-1.5-0.9-2.8-2.2-3.5-3.7c-0.9-1.7-1.3-3.6-1.3-5.6v-8.1c0-1.9,0.4-3.8,1.3-5.6
		c0.8-1.6,2-2.8,3.5-3.7c3.3-1.8,7.3-1.8,10.6,0c1.5,0.9,2.8,2.1,3.5,3.7c0.9,1.7,1.3,3.6,1.3,5.6v8.1c0,1.9-0.4,3.8-1.3,5.6
		c-0.8,1.6-2,2.9-3.5,3.7C83.1,312.9,79.2,312.9,75.9,311.1 M84.3,307.7c0.9-0.5,1.6-1.3,2.1-2.3c0.5-1.1,0.8-2.2,0.7-3.4v-8.4
		c0-1.2-0.2-2.3-0.7-3.4c-0.5-0.9-1.2-1.7-2.1-2.3c-2-1.1-4.3-1.1-6.3,0c-0.9,0.5-1.6,1.3-2.1,2.3c-0.5,1.1-0.8,2.2-0.8,3.4v8.4
		c0,1.2,0.2,2.3,0.8,3.4c0.5,0.9,1.2,1.7,2.1,2.3C80,308.7,82.3,308.7,84.3,307.7"/>
	<path class="st0" d="M100.4,283.4h4v28.7h-4V283.4z M102.4,308.3h16.4v3.8h-16.4V308.3z"/>
	<path class="st0" d="M126.6,283.4h4v28.7h-4C126.6,312.1,126.6,283.4,126.6,283.4z M128.6,308.3H145v3.8h-16.4V308.3z"/>
	<path class="st0" d="M156.2,311.1c-1.5-0.9-2.8-2.2-3.5-3.7c-0.9-1.7-1.3-3.6-1.3-5.6v-8.1c0-1.9,0.4-3.8,1.3-5.6
		c0.8-1.6,2-2.8,3.5-3.7c3.3-1.8,7.3-1.8,10.6,0c1.5,0.9,2.7,2.1,3.5,3.7c0.9,1.7,1.3,3.6,1.3,5.6v8.1c0,1.9-0.4,3.8-1.3,5.6
		c-0.8,1.6-2,2.9-3.5,3.7C163.5,312.9,159.6,312.9,156.2,311.1 M164.7,307.7c0.9-0.5,1.6-1.3,2.1-2.3c0.5-1.1,0.8-2.2,0.7-3.4v-8.4
		c0-1.2-0.2-2.3-0.7-3.4c-0.5-0.9-1.2-1.7-2.1-2.3c-2-1.1-4.3-1.1-6.3,0c-0.9,0.5-1.6,1.3-2.1,2.3c-0.5,1.1-0.8,2.2-0.7,3.4v8.4
		c0,1.2,0.2,2.3,0.7,3.4c0.5,0.9,1.2,1.7,2.1,2.3C160.4,308.7,162.7,308.7,164.7,307.7"/>
	<polygon class="st0" points="193.3,283.4 196.1,283.4 202,305.9 207.1,283.4 211.3,283.4 204.3,312.1 200.1,312.1 194.8,292.1 
		189.3,312.1 185.2,312.1 178.2,283.4 182.4,283.4 187.4,305.9 	"/>
	<path class="st0" d="M228.3,283.4h20.3v3.8h-20.3V283.4z M236.5,285.8h4v26.4h-4V285.8z"/>
	<path class="st0" d="M255.6,283.4h4v28.7h-4V283.4z M258.1,296.1H274v3.8h-15.9V296.1z M271.9,283.4h4v28.7h-4V283.4z"/>
	<path class="st0" d="M286,283.4h4v28.7h-4V283.4z M288,283.4h16.5v3.8H288V283.4z M288,296h14.3v3.8H288V296z M288,308.3h16.5v3.8
		H288V308.3z"/>
	<path class="st0" d="M327.1,283.4h4v28.7h-4V283.4z M329.1,283.4h16v3.8H329L329.1,283.4z M329.1,296.2H343v3.8h-14L329.1,296.2z"
		/>
	<path class="st0" d="M356.9,311.2c-1.5-0.8-2.7-2.1-3.5-3.7c-0.8-1.8-1.2-3.8-1.2-5.8v-18.4h4v18.5c-0.1,1.8,0.4,3.5,1.6,4.9
		c1.2,1.2,2.8,1.8,4.5,1.7c1.7,0.1,3.3-0.5,4.5-1.7c1.1-1.4,1.7-3.1,1.6-4.9v-18.5h4v18.3c0.1,2-0.4,4-1.2,5.8
		c-0.7,1.5-2,2.8-3.5,3.7C364.3,312.9,360.3,312.9,356.9,311.2"/>
	<path class="st0" d="M378.3,283.4h20.3v3.8h-20.3V283.4z M386.4,285.8h4v26.4h-4V285.8z"/>
	<path class="st0" d="M408.9,311.2c-1.5-0.8-2.7-2.1-3.5-3.7c-0.8-1.8-1.2-3.8-1.2-5.8v-18.4h4v18.5c-0.1,1.8,0.5,3.5,1.6,4.9
		c2.6,2.3,6.4,2.3,9,0c1.1-1.4,1.7-3.1,1.6-4.9v-18.5h4v18.3c0.1,2-0.4,4-1.2,5.8c-0.7,1.5-2,2.8-3.5,3.7c-1.7,0.9-3.6,1.3-5.5,1.3
		C412.5,312.5,410.6,312.1,408.9,311.2"/>
	<path class="st0" d="M433.8,283.4h4v28.8h-4V283.4z M435.6,296.2h9.8c0.7,0,1.4-0.2,2-0.6s1.1-0.9,1.4-1.6s0.5-1.5,0.5-2.3
		s-0.2-1.6-0.5-2.3c-0.3-0.6-0.8-1.2-1.4-1.6s-1.3-0.6-2-0.5h-9.8v-3.8h9.7c1.5,0,3,0.3,4.4,1c1.2,0.7,2.2,1.7,2.9,2.9
		c0.7,1.3,1,2.8,1,4.3s-0.3,3-1,4.4c-0.7,1.2-1.7,2.3-2.9,2.9c-1.3,0.7-2.8,1-4.3,1h-9.7L435.6,296.2z M443.4,299.1l4-0.9l7.3,14
		H450L443.4,299.1z"/>
	<path class="st0" d="M463.2,283.4h4v28.7h-4V283.4z M465.2,283.4h16.5v3.8h-16.5V283.4z M465.2,296h14.3v3.8h-14.4L465.2,296z
		 M465.2,308.3h16.5v3.8h-16.5V308.3z"/>
	<path class="st1" d="M0,11.6h68c47,0,79.9,15,79.9,56.1c0,22.1-12.7,42.8-39.9,49.8v1.4c33.3,5.4,52.2,23.3,52.2,54.6
		c0,45.4-35.7,67.1-86.7,67.1H0V11.6z M63.8,106.8c35.5,0,49.9-12.1,49.9-35.4c0-22.8-16.4-31.2-48.7-31.2H34.8v66.7L63.8,106.8z
		 M69.4,212c36.3,0,56.6-12.2,56.6-40.7c0-26.2-19.5-36.8-56.6-36.8H34.8V212H69.4z"/>
	<polygon class="st1" points="179.6,11.6 295,11.6 295,41.2 214.8,41.2 214.8,105.4 295.3,105.4 295.3,134.9 214.8,134.9 
		214.8,240.6 179.6,240.6 	"/>
	<polygon class="st1" points="318.8,97.5 242.4,97.5 242.4,69.7 353.6,69.7 353.6,240.5 318.8,240.5 	"/>
	<path class="st1" d="M307.4,24.9c0-14.7,11-24.9,26-24.9s26,10.1,26,24.9c0,15-11,24.7-26,24.7S307.4,39.9,307.4,24.9"/>
	<polygon class="st1" points="566.3,11.6 528.4,11.6 441.9,129.7 397.2,69.7 359.3,69.7 422.9,155.2 359.3,240.6 397.5,240.6 
		441.9,180.8 486.3,240.6 524.5,240.6 460.9,155.2 	"/>
	<path class="st0" d="M46,283.4h4v28.7h-4V283.4z M48,283.4h16.1v3.8H48V283.4z M48,296.2h14v3.8H48V296.2z"/>
</g>
</svg>
